<?xml version="1.0" standalone="no"?>
<!DOCTYPE svg PUBLIC "-//W3C//DTD SVG 20010904//EN"
 "http://www.w3.org/TR/2001/REC-SVG-20010904/DTD/svg10.dtd">
<svg version="1.0" xmlns="http://www.w3.org/2000/svg"
 width="512.000000pt" height="512.000000pt" viewBox="0 0 512.000000 512.000000"
 preserveAspectRatio="xMidYMid meet">

<g transform="translate(0.000000,512.000000) scale(0.100000,-0.100000)"
fill="#000000" stroke="none">
<path d="M470 2120 c0 -24 73 -206 120 -300 254 -506 723 -859 1292 -972 112
-22 122 -22 1186 -26 l1072 -3 0 -174 c0 -96 2 -175 5 -175 16 0 855 604 848
610 -4 5 -197 141 -428 304 l-420 297 -3 -176 -2 -176 -1058 4 -1057 3 -105
26 c-253 63 -460 178 -636 354 -97 97 -212 258 -255 358 l-24 56 -267 0 c-163
0 -268 -4 -268 -10z"/>
<path d="M1457 2123 c-4 -3 -7 -13 -7 -22 0 -23 201 -221 225 -221 10 0 43 23
71 51 l52 51 70 -35 c38 -19 93 -41 121 -48 l51 -13 0 -76 c0 -46 5 -81 12
-88 18 -18 302 -17 316 1 6 7 12 46 14 87 l3 73 67 23 c37 12 90 35 118 50
l51 28 52 -52 c29 -29 62 -52 72 -52 29 0 228 202 223 226 -3 18 -28 19 -754
22 -413 1 -754 -1 -757 -5z"/>
<path d="M3384 2058 c-96 -191 -263 -383 -433 -497 l-92 -61 384 0 385 0 51
69 c65 87 143 222 189 326 34 77 82 210 82 227 0 4 -119 8 -265 8 l-265 0 -36
-72z"/>
<path d="M110 1075 l0 -255 648 0 647 1 -85 43 c-215 109 -395 243 -549 408
l-54 58 -303 0 -304 0 0 -255z"/>
</g>
</svg>
