<?xml version="1.0" standalone="no"?>
<!DOCTYPE svg PUBLIC "-//W3C//DTD SVG 20010904//EN"
 "http://www.w3.org/TR/2001/REC-SVG-20010904/DTD/svg10.dtd">
<svg version="1.0" xmlns="http://www.w3.org/2000/svg"
 width="64.000000pt" height="64.000000pt" viewBox="0 0 64.000000 64.000000"
 preserveAspectRatio="xMidYMid meet">

<g transform="translate(0.000000,64.000000) scale(0.100000,-0.100000)"
fill="#000000" stroke="none">
<path d="M443 537 c-35 -36 -40 -47 -36 -77 3 -21 -1 -43 -9 -54 -14 -18 -16
-18 -64 0 -49 17 -52 17 -89 -2 -106 -52 -107 -175 -2 -227 45 -22 85 -16 127
20 43 35 56 88 36 138 -15 36 -15 39 1 57 14 15 26 18 53 14 33 -5 40 -1 79
38 44 45 43 59 -4 68 -11 2 -21 13 -23 25 -7 45 -26 45 -69 0z m47 -32 c-7 -8
-16 -12 -21 -9 -13 8 -11 38 3 52 19 19 36 -22 18 -43z m-43 -42 c-5 -7 -13
-13 -18 -13 -14 0 -11 44 4 59 10 10 13 7 18 -11 3 -13 1 -29 -4 -35z m97 31
c21 -8 2 -34 -24 -34 -24 0 -32 11 -19 27 13 15 20 16 43 7z m-35 -60 c-12
-15 -59 -19 -59 -6 0 17 22 29 46 24 19 -3 22 -7 13 -18z m-167 -45 c20 -11
20 -11 -7 -39 -15 -16 -33 -26 -40 -24 -13 5 -45 -21 -45 -36 0 -11 29 -40 40
-40 15 0 41 32 36 45 -2 7 8 25 24 40 28 27 28 27 39 7 38 -70 -19 -162 -99
-162 -34 0 -48 6 -76 34 -28 28 -34 42 -34 76 0 80 92 137 162 99z m-32 -99
c0 -13 -7 -20 -20 -20 -13 0 -20 7 -20 20 0 13 7 20 20 20 13 0 20 -7 20 -20z"/>
<path d="M219 505 c-66 -21 -125 -83 -145 -153 -50 -173 107 -328 281 -278
105 31 177 142 160 246 -11 63 -21 54 -17 -14 3 -49 0 -71 -16 -102 -84 -164
-299 -165 -383 -2 -44 85 -9 208 75 265 36 25 50 28 118 28 82 0 92 12 18 20
-26 3 -65 -2 -91 -10z"/>
</g>
</svg>
