<?xml version="1.0" standalone="no"?>
<!DOCTYPE svg PUBLIC "-//W3C//DTD SVG 20010904//EN"
 "http://www.w3.org/TR/2001/REC-SVG-20010904/DTD/svg10.dtd">
<svg version="1.0" xmlns="http://www.w3.org/2000/svg"
 width="48.000000pt" height="48.000000pt" viewBox="0 0 48.000000 48.000000"
 preserveAspectRatio="xMidYMid meet">

<g transform="translate(0.000000,48.000000) scale(0.100000,-0.100000)"
fill="#000000" stroke="none">
<path d="M330 132 c-8 -3 -18 -10 -22 -17 -10 -17 -124 -17 -139 1 -17 21 -24
18 -42 -21 -22 -46 -22 -45 17 -45 23 0 38 -7 48 -22 14 -21 15 -21 31 20 9
23 19 42 22 42 3 0 13 -19 22 -42 16 -41 16 -41 34 -20 11 14 29 22 49 22 28
0 31 2 24 23 -13 43 -29 64 -44 59z"/>
</g>
</svg>
