<?xml version="1.0" standalone="no"?>
<!DOCTYPE svg PUBLIC "-//W3C//DTD SVG 20010904//EN"
 "http://www.w3.org/TR/2001/REC-SVG-20010904/DTD/svg10.dtd">
<svg version="1.0" xmlns="http://www.w3.org/2000/svg"
 width="512.000000pt" height="512.000000pt" viewBox="0 0 512.000000 512.000000"
 preserveAspectRatio="xMidYMid meet">

<g transform="translate(0.000000,512.000000) scale(0.100000,-0.100000)"
fill="#000000" stroke="none">
<path d="M1506 4404 c-3 -9 -6 -499 -6 -1090 l0 -1074 201 2 202 3 17 85 c35
172 120 352 232 490 l48 59 0 574 0 575 -340 196 c-187 108 -342 196 -344 196
-2 0 -7 -7 -10 -16z"/>
<path d="M2600 3477 l0 -315 83 29 c135 47 250 62 417 56 80 -3 157 -9 173
-13 l27 -6 0 83 -1 84 -340 195 c-186 107 -344 197 -349 198 -6 2 -10 -110
-10 -311z"/>
<path d="M450 3707 c-51 -26 -50 -13 -50 -764 l0 -703 350 0 350 0 0 709 0
710 -24 28 -24 28 -289 3 c-218 2 -294 -1 -313 -11z"/>
<path d="M3700 3112 l0 -48 81 -64 c144 -114 263 -269 341 -445 27 -61 72
-210 83 -277 l6 -38 96 0 96 0 -6 98 c-4 53 -7 171 -7 262 l-1 165 -286 165
c-158 91 -313 180 -345 198 l-58 33 0 -49z"/>
<path d="M2890 3133 c-363 -71 -644 -284 -792 -600 -108 -230 -127 -517 -51
-758 89 -282 282 -506 548 -635 182 -89 378 -124 567 -102 151 18 248 48 387
119 68 35 135 63 149 63 19 0 59 -33 164 -137 l138 -137 100 99 100 99 -135
136 c-160 162 -161 167 -95 278 83 141 128 298 137 478 7 145 -7 254 -48 378
-95 285 -289 502 -563 632 -147 69 -224 85 -416 89 -91 2 -176 1 -190 -2z
m338 -229 c210 -43 399 -170 516 -347 92 -140 133 -259 142 -422 25 -409 -262
-780 -665 -861 -132 -26 -298 -16 -421 25 -286 96 -498 333 -561 626 -16 77
-16 253 0 330 69 323 323 579 646 650 84 19 251 18 343 -1z"/>
<path d="M2980 2809 c-85 -7 -211 -47 -285 -89 -129 -75 -223 -177 -290 -315
-178 -365 -27 -798 337 -970 116 -55 186 -70 323 -69 107 0 130 4 210 31 126
43 208 94 295 182 136 139 199 283 207 476 6 137 -12 229 -66 340 -138 288
-409 441 -731 414z m222 -131 c143 -66 228 -201 229 -363 1 -98 -16 -155 -71
-240 -76 -115 -74 -107 -80 -280 -5 -137 -9 -166 -27 -201 -99 -189 -365 -153
-412 56 -6 25 -11 99 -11 165 0 128 -12 172 -64 240 -57 74 -79 136 -84 230
-3 74 0 102 18 154 44 131 128 215 255 258 63 20 179 12 247 -19z"/>
<path d="M2945 2576 c-101 -46 -159 -144 -158 -266 0 -87 12 -120 77 -215 25
-37 51 -86 57 -109 6 -22 13 -47 15 -53 2 -7 17 -13 34 -13 l30 0 0 136 0 136
-50 56 c-52 58 -61 89 -34 116 26 27 54 18 98 -30 l42 -45 41 45 c43 47 60 54
94 36 34 -19 24 -60 -31 -125 l-50 -59 0 -134 0 -133 31 3 c28 3 33 8 49 58 9
30 40 90 68 133 57 87 78 161 67 236 -22 148 -132 251 -270 251 -42 0 -75 -7
-110 -24z"/>
<path d="M2940 1785 l0 -35 115 0 115 0 0 35 0 35 -115 0 -115 0 0 -35z"/>
<path d="M2966 1619 c10 -12 34 -28 52 -36 41 -17 87 -5 122 32 l23 25 -108 0
-108 0 19 -21z"/>
<path d="M158 2129 c-25 -14 -24 -65 1 -79 13 -7 305 -10 875 -10 l856 0 0 50
0 50 -857 0 c-564 -1 -864 -4 -875 -11z"/>
<path d="M4220 2085 l0 -45 203 0 c185 0 205 2 220 18 10 10 17 25 17 33 0 36
-20 39 -232 39 l-208 0 0 -45z"/>
<path d="M4285 1066 c-16 -8 -72 -57 -124 -110 l-94 -96 5 -51 5 -52 289 -287
c278 -276 291 -288 341 -300 66 -15 119 -6 176 30 85 54 122 182 78 275 -23
49 -553 579 -594 595 -36 13 -45 12 -82 -4z"/>
</g>
</svg>
