<?xml version="1.0" standalone="no"?>
<!DOCTYPE svg PUBLIC "-//W3C//DTD SVG 20010904//EN"
 "http://www.w3.org/TR/2001/REC-SVG-20010904/DTD/svg10.dtd">
<svg version="1.0" xmlns="http://www.w3.org/2000/svg"
 width="4675.000000pt" height="4675.000000pt" viewBox="0 0 4675.000000 4675.000000"
 preserveAspectRatio="xMidYMid meet">

<g transform="translate(0.000000,4675.000000) scale(0.100000,-0.100000)"
fill="#000000" stroke="none">
<path d="M12777 34789 c-346 -30 -678 -177 -915 -403 -194 -185 -304 -375
-369 -634 -16 -62 -17 -330 -21 -3672 -2 -2681 0 -3629 9 -3700 66 -544 510
-979 1136 -1112 l108 -23 3084 -3 3083 -2 -6 -53 c-17 -145 -186 -2085 -184
-2106 3 -20 179 153 1087 1068 l1083 1091 3542 2 3541 3 108 23 c313 66 567
197 772 397 199 193 329 443 364 699 8 54 11 1165 11 3659 0 3103 -2 3594 -15
3673 -42 261 -162 483 -369 682 -249 239 -568 379 -938 412 -136 12 -14975 11
-15111 -1z m13803 -2834 l0 -375 -6240 0 -6240 0 0 375 0 375 6240 0 6240 0 0
-375z m0 -1855 l0 -370 -6240 0 -6240 0 0 370 0 370 6240 0 6240 0 0 -370z
m-6092 -1857 l2 -373 -3195 0 -3195 0 0 375 0 375 3193 -2 3192 -3 3 -372z"/>
<path d="M17235 22494 c-16 -2 -79 -9 -140 -15 -260 -26 -538 -87 -815 -178
-1388 -459 -2421 -1653 -2674 -3091 -78 -441 -80 -931 -5 -1375 231 -1384
1211 -2570 2531 -3064 348 -130 699 -208 1087 -242 196 -17 644 -6 837 20 913
124 1709 525 2349 1182 306 314 538 646 730 1042 220 455 345 919 386 1432 13
165 7 602 -11 745 -91 744 -350 1394 -787 1972 -206 273 -498 565 -768 769
-603 455 -1286 722 -2034 794 -138 13 -595 19 -686 9z"/>
<path d="M28925 19730 c-586 -59 -1122 -261 -1583 -597 -421 -307 -764 -710
-994 -1167 -213 -423 -319 -848 -335 -1336 -23 -705 191 -1401 602 -1965 121
-165 211 -268 366 -421 484 -473 1074 -766 1764 -876 l140 -22 2160 -4 c1188
-1 2170 0 2183 3 15 4 22 13 22 30 0 21 -12 31 -72 61 -388 195 -651 569 -740
1050 -21 117 -22 143 -28 1254 -6 1088 -7 1140 -27 1265 -76 473 -234 890
-479 1271 -132 205 -340 452 -517 614 -496 454 -1092 733 -1762 825 -141 20
-564 28 -700 15z"/>
<path d="M14925 14123 c-898 -76 -1711 -451 -2346 -1083 -305 -304 -535 -622
-720 -994 -183 -370 -297 -746 -360 -1196 -22 -150 -23 -188 -26 -1222 l-4
-1068 6071 0 6071 0 -4 1038 c-4 1123 -5 1148 -63 1460 -199 1082 -850 2007
-1808 2571 -448 264 -1011 442 -1546 491 -105 9 -5155 13 -5265 3z m4961 -395
c6 -6 -839 -4475 -854 -4515 -3 -10 -312 -13 -1496 -13 l-1491 0 -429 2253
c-236 1238 -431 2257 -433 2264 -3 6 8 13 24 16 50 7 4671 2 4679 -5z"/>
<path d="M27175 13023 c-430 -34 -764 -121 -1113 -289 -342 -164 -592 -344
-857 -616 -454 -464 -719 -997 -828 -1663 -20 -124 -21 -170 -24 -1012 l-4
-883 4866 0 4866 0 -4 858 c-4 914 -5 936 -58 1197 -157 779 -618 1464 -1284
1910 -429 287 -921 455 -1445 495 -121 9 -4003 12 -4115 3z m996 -890 c257
-773 1039 -3106 1042 -3109 1 -1 270 799 597 1778 327 979 598 1781 601 1784
8 5 125 -78 264 -187 193 -151 305 -277 305 -343 0 -27 -20 -50 -138 -166
-111 -109 -604 -567 -776 -721 l-38 -35 306 -294 c168 -162 306 -297 305 -300
-1 -13 -1416 -1535 -1427 -1535 -11 0 -1422 1524 -1422 1537 0 4 136 138 303
299 l304 292 -301 276 c-374 343 -645 607 -652 637 -13 53 81 170 251 309 104
85 305 234 317 235 3 0 75 -206 159 -457z"/>
</g>
</svg>
