<svg id="Слой_1" data-name="Слой 1" xmlns="http://www.w3.org/2000/svg" viewBox="0 0 823.02 787.8"><defs><style>.cls-1{fill:#0071bc;}.cls-2{fill:#fff;}.cls-3{stroke:#000;stroke-miterlimit:10;}</style></defs><circle class="cls-1" cx="266.5" cy="514.4" r="207.63"/><circle class="cls-2" cx="266.5" cy="514.4" r="118.69"/><polygon class="cls-1" points="326.94 326.82 210.44 326.82 226.73 243.52 310.03 243.52 326.94 326.82"/><polygon class="cls-1" points="452.62 430.62 372.39 346.15 444 300.59 501.37 360.99 452.62 430.62"/><polygon class="cls-1" points="449.7 579.46 449.7 462.96 533 479.25 533 562.55 449.7 579.46"/><polygon class="cls-1" points="353.31 693.99 435.69 611.62 483.07 682.03 424.17 740.94 353.31 693.99"/><polygon class="cls-1" points="207.96 701.95 324.42 704.95 305.99 787.8 222.72 785.65 207.96 701.95"/><polygon class="cls-1" points="80.38 431.07 160.61 346.6 89 301.04 31.63 361.44 80.38 431.07"/><polygon class="cls-1" points="83.3 579.9 83.3 463.41 0 479.69 0 562.99 83.3 579.9"/><polygon class="cls-1" points="179.69 694.44 97.31 612.06 49.92 682.48 108.83 741.38 179.69 694.44"/><circle cx="655.68" cy="287.85" r="130.38"/><circle class="cls-2" cx="655.68" cy="287.85" r="74.53"/><polygon points="693.63 170.06 620.48 170.06 630.7 117.75 683.01 117.75 693.63 170.06"/><polygon points="772.55 235.23 722.17 182.19 767.14 153.59 803.16 191.51 772.55 235.23"/><polygon points="770.71 328.69 770.71 255.54 823.02 265.77 823.02 318.08 770.71 328.69"/><polygon points="710.19 400.62 761.91 348.89 791.67 393.11 754.68 430.09 710.19 400.62"/><polygon points="618.92 405.61 692.04 407.49 680.48 459.52 628.18 458.17 618.92 405.61"/><polygon points="538.81 235.51 589.18 182.47 544.21 153.87 508.19 191.79 538.81 235.51"/><polygon points="540.64 328.98 540.64 255.82 488.33 266.05 488.33 318.36 540.64 328.98"/><polygon points="601.16 400.89 549.44 349.17 519.68 393.39 556.67 430.37 601.16 400.89"/><circle cx="372.24" cy="118.68" r="90.96"/><circle class="cls-2" cx="372.24" cy="118.68" r="52"/><polygon points="398.72 36.49 347.68 36.49 354.82 0 391.31 0 398.72 36.49"/><polygon points="453.78 81.97 418.63 44.96 450.01 25 475.14 51.47 453.78 81.97"/><polygon points="452.5 147.18 452.5 96.14 489 103.28 489 139.77 452.5 147.18"/><polygon points="410.28 197.36 446.37 161.27 467.13 192.12 441.32 217.93 410.28 197.36"/><polygon points="346.6 200.84 397.62 202.16 389.55 238.46 353.06 237.52 346.6 200.84"/><polygon points="290.7 82.17 325.85 45.16 294.48 25.2 269.34 51.66 290.7 82.17"/><polygon points="291.98 147.37 291.98 96.34 255.49 103.47 255.49 139.97 291.98 147.37"/><polygon points="334.21 197.55 298.12 161.46 277.36 192.31 303.16 218.12 334.21 197.55"/><path class="cls-3" d="M730.72,784.5s-1.18-42.23,13.5-56.31,37-15.56,37-15.56l26.41,64.57L812.9,732l-10.28-19.37,12.92-5.87,11.44,7-9.39,17.32L827,778.37l22.31-64.27s26.12,3.23,38.15,12.91,12.82,52.73,12.82,52.73-26.53,41.93-83.76,40.76S730.72,784.5,730.72,784.5Z" transform="translate(-548 -190.48)"/><path d="M778.25,619.2a56.43,56.43,0,0,0-1.58,13.18,112.55,112.55,0,0,0,.51,13.24,171.23,171.23,0,0,0,4.47,26.06l-.14-.41a55.2,55.2,0,0,0,10.64,14.67,46.79,46.79,0,0,0,7,5.6,40.95,40.95,0,0,0,16.54,6.33l2.14.23c.67,0,1.32,0,2-.08s1.4-.14,2.1-.3,1.4-.28,2.1-.49a41.34,41.34,0,0,0,15.4-8.76,38,38,0,0,0,6-6.57,29.69,29.69,0,0,0,2.3-3.75c.35-.62.66-1.34,1-2s.62-1.41.92-2.12A86.26,86.26,0,0,0,855,656.26a81.65,81.65,0,0,0,1.3-18.55,74.86,74.86,0,0,0-3.26-18.51c5.27,11.55,6.78,24.8,5.16,37.56a78.33,78.33,0,0,1-1.79,9.5,84.07,84.07,0,0,1-2.86,9.27c-.27.76-.56,1.52-.88,2.26s-.61,1.49-1,2.26a33.37,33.37,0,0,1-2.53,4.39,42.12,42.12,0,0,1-6.55,7.53,48.73,48.73,0,0,1-8,5.93,40.08,40.08,0,0,1-9.21,4.07c-.81.25-1.66.41-2.5.61s-1.72.27-2.59.4-1.82.08-2.72.11-1.72-.19-2.57-.29a43.29,43.29,0,0,1-9.68-2.62,46.79,46.79,0,0,1-16.46-11,24.12,24.12,0,0,1-1.69-1.81c-.54-.62-1.11-1.22-1.62-1.87-1-1.31-2-2.58-2.92-4a57.52,57.52,0,0,1-4.77-8.57l-.11-.22,0-.19c-.89-4.42-1.64-8.87-2.18-13.34s-.82-9-.93-13.47a108.32,108.32,0,0,1,.58-13.48c.24-2.23.62-4.45,1.06-6.65A44.19,44.19,0,0,1,778.25,619.2Z" transform="translate(-548 -190.48)"/><path d="M776.38,651.89s10.26-25.39,20.12-26.49S808.18,632,817.67,632s13.87-8.39,20.81-8.39,18.76,28.31,18.76,28.31,3.14-48.39-22.78-50.21S768.31,590.41,776.38,651.89Z" transform="translate(-548 -190.48)"/></svg>