<?xml version="1.0" standalone="no"?>
<!DOCTYPE svg PUBLIC "-//W3C//DTD SVG 20010904//EN"
 "http://www.w3.org/TR/2001/REC-SVG-20010904/DTD/svg10.dtd">
<svg version="1.0" xmlns="http://www.w3.org/2000/svg"
 width="64.000000pt" height="64.000000pt" viewBox="0 0 64.000000 64.000000"
 preserveAspectRatio="xMidYMid meet">

<g transform="translate(0.000000,64.000000) scale(0.100000,-0.100000)"
fill="#000000" stroke="none">
<path d="M291 611 c-8 -5 -19 -24 -25 -42 -14 -41 -58 -59 -85 -35 -24 22 -44
20 -69 -7 -26 -28 -28 -44 -6 -68 25 -27 6 -71 -36 -85 -64 -21 -64 -95 -1
-107 43 -9 58 -47 34 -87 -33 -57 25 -112 80 -76 33 22 74 7 83 -31 10 -40 23
-53 54 -53 31 0 44 13 54 53 9 38 50 53 83 31 55 -36 113 19 80 76 -24 40 -9
78 34 87 63 12 63 86 -1 107 -42 14 -61 58 -36 85 22 24 20 44 -7 69 -28 26
-44 28 -68 6 -27 -24 -71 -6 -85 35 -11 34 -29 51 -54 51 -8 0 -21 -4 -29 -9z
m67 -43 c5 -21 20 -39 40 -51 30 -18 33 -18 61 -1 52 31 88 -5 57 -57 -17 -28
-17 -31 1 -61 12 -20 30 -35 51 -40 47 -13 47 -63 0 -76 -21 -5 -39 -20 -51
-39 -17 -29 -17 -33 0 -67 16 -34 16 -37 0 -53 -15 -16 -19 -16 -51 -1 -50 25
-93 7 -107 -44 -8 -33 -14 -38 -39 -38 -25 0 -31 5 -38 32 -5 21 -20 39 -39
51 -29 17 -33 17 -67 0 -34 -16 -37 -16 -53 0 -16 16 -16 19 0 53 17 34 17 38
0 67 -12 19 -30 34 -51 39 -27 7 -32 13 -32 38 0 25 5 31 32 38 21 5 39 20 51
40 18 30 18 33 1 61 -31 52 5 88 57 57 28 -17 31 -17 61 1 20 12 35 30 40 51
7 27 13 32 38 32 25 0 31 -5 38 -32z"/>
<path d="M342 393 c-37 -94 -62 -167 -57 -171 3 -3 7 -3 8 -1 10 12 69 190 65
195 -3 2 -10 -8 -16 -23z"/>
<path d="M210 355 l-34 -35 34 -35 c18 -19 37 -32 41 -29 5 3 -6 18 -24 34
l-32 30 32 30 c18 16 29 31 24 34 -4 3 -23 -10 -41 -29z"/>
<path d="M388 384 c-4 -3 8 -19 25 -35 l32 -29 -32 -30 c-18 -16 -29 -31 -24
-34 4 -3 23 10 42 30 l33 34 -35 36 c-19 19 -38 32 -41 28z"/>
</g>
</svg>
